# xmcd
#
# Track frame offsets: 
#        150
#        17563
#        30168
#        46140
#        61463
#        72788
#        87212
#        101222
#        115289
#        130214
#        147550
#        172620
#        190657
#        206557
#        224942
#        241331
#        261206
#
# Disc length: 3758 seconds
#
# Revision: 0
# Processed by: cddbd v1.5.2PL0 Copyright (c) Steve Scherf et al.
# Submitted via: ExactAudioCopy v1.0b3
#
DISCID=f20eac11
DTITLE=Stephanie Mills - For The First Time [Expanded]
DYEAR=2014
DGENRE=Pop
TTITLE0=I Took My Strength From You
TTITLE1=Living On Plastic
TTITLE2=No One Remembers My Name
TTITLE3=If You Can Learn How To Cry
TTITLE4=Loneliness Remembers (What Happiness Forgets)
TTITLE5=This Empty Place
TTITLE6=The Way I Feel About You
TTITLE7=I See You For The First Time
TTITLE8=All The Way To Paradise
TTITLE9=Please Let Go
TTITLE10=Love Has Lifted Me (bonus)
TTITLE11=Love Is Everywhere (bonus)
TTITLE12=I Don't Want To Be Reminded (bonus)
TTITLE13=You Are The Melody Of My Life (bonus)
TTITLE14=I Hope We Don't Run Out Of Music (bonus)
TTITLE15=The Kingdom Within Everyone (bonus)
TTITLE16=This Simple Masterpiece (bonus)
EXTD=
EXTT0=
EXTT1=
EXTT2=
EXTT3=
EXTT4=
EXTT5=
EXTT6=
EXTT7=
EXTT8=
EXTT9=
EXTT10=
EXTT11=
EXTT12=
EXTT13=
EXTT14=
EXTT15=
EXTT16=
PLAYORDER=
